<?xml version="1.0" encoding="UTF-8"?>
<svg xmlns="http://www.w3.org/2000/svg" xmlns:xlink="http://www.w3.org/1999/xlink" width="306pt" height="229pt" viewBox="0 0 306 229" version="1.1">
<defs>
<clipPath id="clip1">
  <path d="M 63 9 L 66 9 L 66 182.25 L 63 182.25 Z M 63 9 "/>
</clipPath>
<clipPath id="clip2">
  <path d="M 137 9 L 140 9 L 140 182.25 L 137 182.25 Z M 137 9 "/>
</clipPath>
<clipPath id="clip3">
  <path d="M 212 9 L 214 9 L 214 182.25 L 212 182.25 Z M 212 9 "/>
</clipPath>
<clipPath id="clip4">
  <path d="M 286 9 L 288 9 L 288 182.25 L 286 182.25 Z M 286 9 "/>
</clipPath>
<clipPath id="clip5">
  <path d="M 53.273438 171 L 297.398438 171 L 297.398438 173 L 53.273438 173 Z M 53.273438 171 "/>
</clipPath>
<clipPath id="clip6">
  <path d="M 53.273438 119 L 297.398438 119 L 297.398438 121 L 53.273438 121 Z M 53.273438 119 "/>
</clipPath>
<clipPath id="clip7">
  <path d="M 53.273438 67 L 297.398438 67 L 297.398438 69 L 53.273438 69 Z M 53.273438 67 "/>
</clipPath>
<clipPath id="clip8">
  <path d="M 53.273438 15 L 297.398438 15 L 297.398438 18 L 53.273438 18 Z M 53.273438 15 "/>
</clipPath>
</defs>
<g id="surface1">
<rect x="0" y="0" width="306" height="229" style="fill:rgb(100%,100%,100%);fill-opacity:1;stroke:none;"/>
<path style=" stroke:none;fill-rule:nonzero;fill:rgb(100%,100%,100%);fill-opacity:1;" d="M 53.273438 182.25 L 297.402344 182.25 L 297.402344 9 L 53.273438 9 Z M 53.273438 182.25 "/>
<g clip-path="url(#clip1)" clip-rule="nonzero">
<path style="fill:none;stroke-width:0.8;stroke-linecap:square;stroke-linejoin:round;stroke:rgb(69.019608%,69.019608%,69.019608%);stroke-opacity:1;stroke-miterlimit:4;" d="M 51.496875 145.8 L 51.496875 7.2 " transform="matrix(1.25,0,0,1.25,0,0.000000000000014211)"/>
</g>
<path style="fill:none;stroke-width:0.8;stroke-linecap:butt;stroke-linejoin:round;stroke:rgb(0%,0%,0%);stroke-opacity:1;stroke-miterlimit:4;" d="M -0.00071 0 L -0.00071 3.5 " transform="matrix(1.25,0,0,1.25,64.371981,182.25)"/>
<path style=" stroke:none;fill-rule:nonzero;fill:rgb(0%,0%,0%);fill-opacity:1;" d="M 56.480469 196.0625 L 64.304688 196.0625 L 64.304688 197.097656 L 56.480469 197.097656 Z M 56.480469 196.0625 "/>
<path style=" stroke:none;fill-rule:nonzero;fill:rgb(0%,0%,0%);fill-opacity:1;" d="M 67.183594 199.460938 L 69.195312 199.460938 L 69.195312 192.507812 L 67.003906 192.949219 L 67.003906 191.824219 L 69.183594 191.386719 L 70.417969 191.386719 L 70.417969 199.460938 L 72.429688 199.460938 L 72.429688 200.5 L 67.183594 200.5 Z M 67.183594 199.460938 "/>
<g clip-path="url(#clip2)" clip-rule="nonzero">
<path style="fill:none;stroke-width:0.8;stroke-linecap:square;stroke-linejoin:round;stroke:rgb(69.019608%,69.019608%,69.019608%);stroke-opacity:1;stroke-miterlimit:4;" d="M 110.878125 145.8 L 110.878125 7.2 " transform="matrix(1.25,0,0,1.25,0,0.000000000000014211)"/>
</g>
<path style="fill:none;stroke-width:0.8;stroke-linecap:butt;stroke-linejoin:round;stroke:rgb(0%,0%,0%);stroke-opacity:1;stroke-miterlimit:4;" d="M 0.000789 0 L 0.000789 3.5 " transform="matrix(1.25,0,0,1.25,138.59667,182.25)"/>
<path style=" stroke:none;fill-rule:nonzero;fill:rgb(0%,0%,0%);fill-opacity:1;" d="M 138.59375 192.199219 C 137.957031 192.199219 137.480469 192.511719 137.160156 193.136719 C 136.84375 193.757812 136.683594 194.699219 136.683594 195.953125 C 136.683594 197.199219 136.84375 198.136719 137.160156 198.761719 C 137.480469 199.386719 137.957031 199.699219 138.59375 199.699219 C 139.230469 199.699219 139.710938 199.386719 140.03125 198.761719 C 140.351562 198.136719 140.511719 197.199219 140.511719 195.953125 C 140.511719 194.699219 140.351562 193.757812 140.03125 193.136719 C 139.710938 192.511719 139.230469 192.199219 138.59375 192.199219 Z M 138.59375 191.222656 C 139.613281 191.222656 140.394531 191.625 140.933594 192.433594 C 141.472656 193.242188 141.742188 194.414062 141.742188 195.953125 C 141.742188 197.484375 141.472656 198.65625 140.933594 199.464844 C 140.394531 200.273438 139.613281 200.675781 138.59375 200.675781 C 137.570312 200.675781 136.792969 200.273438 136.253906 199.464844 C 135.714844 198.65625 135.445312 197.484375 135.445312 195.953125 C 135.445312 194.414062 135.714844 193.242188 136.253906 192.433594 C 136.792969 191.625 137.570312 191.222656 138.59375 191.222656 Z M 138.59375 191.222656 "/>
<g clip-path="url(#clip3)" clip-rule="nonzero">
<path style="fill:none;stroke-width:0.8;stroke-linecap:square;stroke-linejoin:round;stroke:rgb(69.019608%,69.019608%,69.019608%);stroke-opacity:1;stroke-miterlimit:4;" d="M 170.25625 145.8 L 170.25625 7.2 " transform="matrix(1.25,0,0,1.25,0,0.000000000000014211)"/>
</g>
<path style="fill:none;stroke-width:0.8;stroke-linecap:butt;stroke-linejoin:round;stroke:rgb(0%,0%,0%);stroke-opacity:1;stroke-miterlimit:4;" d="M -0.000836 0 L -0.000836 3.5 " transform="matrix(1.25,0,0,1.25,212.821357,182.25)"/>
<path style=" stroke:none;fill-rule:nonzero;fill:rgb(0%,0%,0%);fill-opacity:1;" d="M 210.394531 199.460938 L 212.410156 199.460938 L 212.410156 192.507812 L 210.21875 192.949219 L 210.21875 191.824219 L 212.398438 191.386719 L 213.628906 191.386719 L 213.628906 199.460938 L 215.644531 199.460938 L 215.644531 200.5 L 210.394531 200.5 Z M 210.394531 199.460938 "/>
<g clip-path="url(#clip4)" clip-rule="nonzero">
<path style="fill:none;stroke-width:0.8;stroke-linecap:square;stroke-linejoin:round;stroke:rgb(69.019608%,69.019608%,69.019608%);stroke-opacity:1;stroke-miterlimit:4;" d="M 229.6375 145.8 L 229.6375 7.2 " transform="matrix(1.25,0,0,1.25,0,0.000000000000014211)"/>
</g>
<path style="fill:none;stroke-width:0.8;stroke-linecap:butt;stroke-linejoin:round;stroke:rgb(0%,0%,0%);stroke-opacity:1;stroke-miterlimit:4;" d="M 0.000663 0 L 0.000663 3.5 " transform="matrix(1.25,0,0,1.25,287.046046,182.25)"/>
<path style=" stroke:none;fill-rule:nonzero;fill:rgb(0%,0%,0%);fill-opacity:1;" d="M 285.46875 199.460938 L 289.769531 199.460938 L 289.769531 200.5 L 283.984375 200.5 L 283.984375 199.460938 C 284.453125 198.976562 285.089844 198.328125 285.898438 197.511719 C 286.707031 196.695312 287.214844 196.167969 287.421875 195.933594 C 287.816406 195.488281 288.089844 195.113281 288.246094 194.808594 C 288.40625 194.5 288.484375 194.199219 288.484375 193.902344 C 288.484375 193.417969 288.3125 193.023438 287.972656 192.71875 C 287.632812 192.410156 287.191406 192.257812 286.644531 192.257812 C 286.257812 192.257812 285.851562 192.324219 285.421875 192.460938 C 284.992188 192.59375 284.535156 192.796875 284.046875 193.070312 L 284.046875 191.824219 C 284.542969 191.625 285.003906 191.476562 285.4375 191.375 C 285.867188 191.273438 286.265625 191.222656 286.621094 191.222656 C 287.566406 191.222656 288.320312 191.457031 288.878906 191.929688 C 289.441406 192.402344 289.722656 193.03125 289.722656 193.820312 C 289.722656 194.195312 289.652344 194.550781 289.511719 194.886719 C 289.371094 195.222656 289.117188 195.617188 288.746094 196.074219 C 288.644531 196.191406 288.320312 196.53125 287.773438 197.097656 C 287.230469 197.660156 286.460938 198.449219 285.46875 199.460938 Z M 285.46875 199.460938 "/>
<path style=" stroke:none;fill-rule:nonzero;fill:rgb(0%,0%,0%);fill-opacity:1;" d="M 178.5 210.761719 L 176.027344 214.085938 L 178.625 217.597656 L 177.300781 217.597656 L 175.3125 214.910156 L 173.324219 217.597656 L 171.996094 217.597656 L 174.652344 214.019531 L 172.222656 210.761719 L 173.546875 210.761719 L 175.359375 213.195312 L 177.171875 210.761719 Z M 178.5 210.761719 "/>
<g clip-path="url(#clip5)" clip-rule="nonzero">
<path style="fill:none;stroke-width:0.8;stroke-linecap:square;stroke-linejoin:round;stroke:rgb(69.019608%,69.019608%,69.019608%);stroke-opacity:1;stroke-miterlimit:4;" d="M 42.61875 137.559375 L 237.921875 137.559375 " transform="matrix(1.25,0,0,1.25,0,0.000000000000014211)"/>
</g>
<path style="fill:none;stroke-width:0.8;stroke-linecap:butt;stroke-linejoin:round;stroke:rgb(0%,0%,0%);stroke-opacity:1;stroke-miterlimit:4;" d="M -0.001562 -0.001479 L -3.501562 -0.001479 " transform="matrix(1.25,0,0,1.25,53.27539,171.951067)"/>
<path style=" stroke:none;fill-rule:nonzero;fill:rgb(0%,0%,0%);fill-opacity:1;" d="M 27.421875 172.261719 L 35.246094 172.261719 L 35.246094 173.300781 L 27.421875 173.300781 Z M 27.421875 172.261719 "/>
<path style=" stroke:none;fill-rule:nonzero;fill:rgb(0%,0%,0%);fill-opacity:1;" d="M 38.121094 175.664062 L 40.136719 175.664062 L 40.136719 168.710938 L 37.945312 169.148438 L 37.945312 168.027344 L 40.125 167.585938 L 41.355469 167.585938 L 41.355469 175.664062 L 43.371094 175.664062 L 43.371094 176.699219 L 38.121094 176.699219 Z M 38.121094 175.664062 "/>
<g clip-path="url(#clip6)" clip-rule="nonzero">
<path style="fill:none;stroke-width:0.8;stroke-linecap:square;stroke-linejoin:round;stroke:rgb(69.019608%,69.019608%,69.019608%);stroke-opacity:1;stroke-miterlimit:4;" d="M 42.61875 96.05625 L 237.921875 96.05625 " transform="matrix(1.25,0,0,1.25,0,0.000000000000014211)"/>
</g>
<path style="fill:none;stroke-width:0.8;stroke-linecap:butt;stroke-linejoin:round;stroke:rgb(0%,0%,0%);stroke-opacity:1;stroke-miterlimit:4;" d="M -0.001562 0.000952 L -3.501562 0.000952 " transform="matrix(1.25,0,0,1.25,53.27539,120.069122)"/>
<path style=" stroke:none;fill-rule:nonzero;fill:rgb(0%,0%,0%);fill-opacity:1;" d="M 40.542969 116.515625 C 39.910156 116.515625 39.433594 116.828125 39.113281 117.453125 C 38.792969 118.078125 38.632812 119.015625 38.632812 120.269531 C 38.632812 121.519531 38.792969 122.457031 39.113281 123.082031 C 39.433594 123.707031 39.910156 124.019531 40.542969 124.019531 C 41.183594 124.019531 41.664062 123.707031 41.980469 123.082031 C 42.300781 122.457031 42.460938 121.519531 42.460938 120.269531 C 42.460938 119.015625 42.300781 118.078125 41.980469 117.453125 C 41.664062 116.828125 41.183594 116.515625 40.542969 116.515625 Z M 40.542969 115.539062 C 41.566406 115.539062 42.347656 115.945312 42.886719 116.753906 C 43.425781 117.5625 43.695312 118.734375 43.695312 120.269531 C 43.695312 121.804688 43.425781 122.976562 42.886719 123.785156 C 42.347656 124.59375 41.566406 124.996094 40.542969 124.996094 C 39.523438 124.996094 38.742188 124.59375 38.203125 123.785156 C 37.664062 122.976562 37.394531 121.804688 37.394531 120.269531 C 37.394531 118.734375 37.664062 117.5625 38.203125 116.753906 C 38.742188 115.945312 39.523438 115.539062 40.542969 115.539062 Z M 40.542969 115.539062 "/>
<g clip-path="url(#clip7)" clip-rule="nonzero">
<path style="fill:none;stroke-width:0.8;stroke-linecap:square;stroke-linejoin:round;stroke:rgb(69.019608%,69.019608%,69.019608%);stroke-opacity:1;stroke-miterlimit:4;" d="M 42.61875 54.55 L 237.921875 54.55 " transform="matrix(1.25,0,0,1.25,0,0.000000000000014211)"/>
</g>
<path style="fill:none;stroke-width:0.8;stroke-linecap:butt;stroke-linejoin:round;stroke:rgb(0%,0%,0%);stroke-opacity:1;stroke-miterlimit:4;" d="M -0.001562 0.000259 L -3.501562 0.000259 " transform="matrix(1.25,0,0,1.25,53.27539,68.187176)"/>
<path style=" stroke:none;fill-rule:nonzero;fill:rgb(0%,0%,0%);fill-opacity:1;" d="M 38.121094 71.898438 L 40.136719 71.898438 L 40.136719 64.945312 L 37.945312 65.386719 L 37.945312 64.261719 L 40.125 63.824219 L 41.355469 63.824219 L 41.355469 71.898438 L 43.371094 71.898438 L 43.371094 72.9375 L 38.121094 72.9375 Z M 38.121094 71.898438 "/>
<g clip-path="url(#clip8)" clip-rule="nonzero">
<path style="fill:none;stroke-width:0.8;stroke-linecap:square;stroke-linejoin:round;stroke:rgb(69.019608%,69.019608%,69.019608%);stroke-opacity:1;stroke-miterlimit:4;" d="M 42.61875 13.04375 L 237.921875 13.04375 " transform="matrix(1.25,0,0,1.25,0,0.000000000000014211)"/>
</g>
<path style="fill:none;stroke-width:0.8;stroke-linecap:butt;stroke-linejoin:round;stroke:rgb(0%,0%,0%);stroke-opacity:1;stroke-miterlimit:4;" d="M -0.001562 -0.000434 L -3.501562 -0.000434 " transform="matrix(1.25,0,0,1.25,53.27539,16.30523)"/>
<path style=" stroke:none;fill-rule:nonzero;fill:rgb(0%,0%,0%);fill-opacity:1;" d="M 38.96875 20.015625 L 43.273438 20.015625 L 43.273438 21.054688 L 37.488281 21.054688 L 37.488281 20.015625 C 37.957031 19.53125 38.59375 18.882812 39.398438 18.066406 C 40.207031 17.25 40.714844 16.726562 40.921875 16.488281 C 41.316406 16.046875 41.59375 15.671875 41.75 15.363281 C 41.90625 15.054688 41.984375 14.753906 41.984375 14.457031 C 41.984375 13.972656 41.816406 13.578125 41.476562 13.273438 C 41.136719 12.96875 40.695312 12.8125 40.148438 12.8125 C 39.761719 12.8125 39.351562 12.882812 38.921875 13.015625 C 38.496094 13.148438 38.035156 13.351562 37.546875 13.625 L 37.546875 12.378906 C 38.042969 12.179688 38.507812 12.03125 38.9375 11.929688 C 39.371094 11.828125 39.765625 11.777344 40.125 11.777344 C 41.070312 11.777344 41.820312 12.011719 42.382812 12.484375 C 42.945312 12.957031 43.222656 13.585938 43.222656 14.375 C 43.222656 14.75 43.152344 15.105469 43.011719 15.441406 C 42.875 15.777344 42.617188 16.171875 42.246094 16.628906 C 42.144531 16.746094 41.824219 17.089844 41.277344 17.652344 C 40.734375 18.214844 39.964844 19.003906 38.96875 20.015625 Z M 38.96875 20.015625 "/>
<path style=" stroke:none;fill-rule:nonzero;fill:rgb(0%,0%,0%);fill-opacity:1;" d="M 9 101.761719 L 9.933594 101.761719 L 9.933594 102.835938 C 9.933594 103.238281 10.015625 103.519531 10.179688 103.675781 C 10.34375 103.832031 10.636719 103.910156 11.058594 103.910156 L 11.660156 103.910156 L 11.660156 102.0625 L 12.535156 102.0625 L 12.535156 103.910156 L 18.496094 103.910156 L 18.496094 105.039062 L 12.535156 105.039062 L 12.535156 106.113281 L 11.660156 106.113281 L 11.660156 105.039062 L 11.183594 105.039062 C 10.425781 105.039062 9.871094 104.863281 9.523438 104.507812 C 9.175781 104.15625 9 103.59375 9 102.824219 Z M 9 101.761719 "/>
<path style=" stroke:none;fill-rule:nonzero;fill:rgb(0%,0%,0%);fill-opacity:1;" d="M 9.011719 98.125 C 9.949219 98.671875 10.875 99.074219 11.789062 99.339844 C 12.707031 99.605469 13.632812 99.738281 14.574219 99.738281 C 15.511719 99.738281 16.441406 99.605469 17.363281 99.335938 C 18.285156 99.070312 19.214844 98.667969 20.144531 98.125 L 20.144531 99.101562 C 19.1875 99.710938 18.25 100.167969 17.324219 100.472656 C 16.402344 100.773438 15.484375 100.925781 14.574219 100.925781 C 13.667969 100.925781 12.753906 100.777344 11.832031 100.476562 C 10.914062 100.171875 9.972656 99.714844 9.011719 99.101562 Z M 9.011719 98.125 "/>
<path style=" stroke:none;fill-rule:nonzero;fill:rgb(0%,0%,0%);fill-opacity:1;" d="M 11.660156 90.261719 L 14.988281 92.734375 L 18.496094 90.136719 L 18.496094 91.460938 L 15.8125 93.449219 L 18.496094 95.4375 L 18.496094 96.765625 L 14.921875 94.109375 L 11.660156 96.539062 L 11.660156 95.214844 L 14.097656 93.402344 L 11.660156 91.589844 Z M 11.660156 90.261719 "/>
<path style=" stroke:none;fill-rule:nonzero;fill:rgb(0%,0%,0%);fill-opacity:1;" d="M 9.011719 88.726562 L 9.011719 87.75 C 9.972656 87.140625 10.914062 86.683594 11.832031 86.378906 C 12.753906 86.074219 13.667969 85.925781 14.574219 85.925781 C 15.484375 85.925781 16.402344 86.074219 17.324219 86.378906 C 18.25 86.683594 19.1875 87.140625 20.144531 87.75 L 20.144531 88.726562 C 19.214844 88.183594 18.285156 87.78125 17.363281 87.515625 C 16.441406 87.246094 15.511719 87.113281 14.574219 87.113281 C 13.632812 87.113281 12.707031 87.246094 11.789062 87.515625 C 10.875 87.78125 9.949219 88.183594 9.011719 88.726562 Z M 9.011719 88.726562 "/>
<path style="fill:none;stroke-width:1.5;stroke-linecap:square;stroke-linejoin:round;stroke:rgb(12.156863%,46.666667%,70.588235%);stroke-opacity:1;stroke-miterlimit:4;" d="M 51.496875 54.55 L 53.278125 55.975 L 55.059375 57.73125 L 56.840625 59.784375 L 59.215625 62.915625 L 62.1875 67.31875 L 65.75 73.059375 L 73.46875 85.671875 L 76.4375 90.06875 L 78.8125 93.246875 L 81.1875 96.05625 L 83.5625 98.446875 L 85.34375 99.95 L 87.125 101.184375 L 88.90625 102.153125 L 90.6875 102.853125 L 92.46875 103.2875 L 94.25 103.4625 L 96.03125 103.39375 L 97.8125 103.090625 L 99.59375 102.578125 L 101.971875 101.603125 L 104.346875 100.35 L 107.315625 98.5 L 113.253125 94.409375 L 116.815625 92.109375 L 119.190625 90.796875 L 121.565625 89.746875 L 123.346875 89.16875 L 125.128125 88.79375 L 126.909375 88.64375 L 128.690625 88.7375 L 130.471875 89.084375 L 132.253125 89.69375 L 134.034375 90.571875 L 135.815625 91.71875 L 137.596875 93.134375 L 139.378125 94.803125 L 141.75625 97.409375 L 144.13125 100.409375 L 146.50625 103.75 L 149.475 108.303125 L 154.225 116.09375 L 159.56875 124.790625 L 162.5375 129.19375 L 164.9125 132.325 L 166.69375 134.378125 L 168.475 136.1375 L 170.25625 137.559375 L 172.0375 138.615625 L 173.225 139.1 L 174.4125 139.396875 L 175.6 139.5 L 176.7875 139.403125 L 177.975 139.1 L 179.1625 138.584375 L 180.353125 137.853125 L 181.540625 136.90625 L 182.728125 135.7375 L 184.509375 133.571875 L 186.290625 130.915625 L 188.071875 127.771875 L 189.853125 124.15625 L 191.634375 120.090625 L 194.009375 114.0125 L 196.384375 107.25625 L 199.353125 97.996875 L 202.915625 85.990625 L 210.040625 60.771875 L 214.196875 46.61875 L 217.165625 37.35 L 219.54375 30.678125 L 221.325 26.203125 L 223.10625 22.246875 L 224.8875 18.86875 L 226.075 16.959375 L 227.2625 15.346875 L 228.45 14.0375 L 229.04375 13.5 " transform="matrix(1.25,0,0,1.25,0,0.000000000000014211)"/>
<path style="fill:none;stroke-width:0.8;stroke-linecap:square;stroke-linejoin:miter;stroke:rgb(0%,0%,0%);stroke-opacity:1;stroke-miterlimit:4;" d="M 42.61875 145.8 L 42.61875 7.2 " transform="matrix(1.25,0,0,1.25,0,0.000000000000014211)"/>
<path style="fill:none;stroke-width:0.8;stroke-linecap:square;stroke-linejoin:miter;stroke:rgb(0%,0%,0%);stroke-opacity:1;stroke-miterlimit:4;" d="M 237.921875 145.8 L 237.921875 7.2 " transform="matrix(1.25,0,0,1.25,0,0.000000000000014211)"/>
<path style="fill:none;stroke-width:0.8;stroke-linecap:square;stroke-linejoin:miter;stroke:rgb(0%,0%,0%);stroke-opacity:1;stroke-miterlimit:4;" d="M 42.61875 145.8 L 237.921875 145.8 " transform="matrix(1.25,0,0,1.25,0,0.000000000000014211)"/>
<path style="fill:none;stroke-width:0.8;stroke-linecap:square;stroke-linejoin:miter;stroke:rgb(0%,0%,0%);stroke-opacity:1;stroke-miterlimit:4;" d="M 42.61875 7.2 L 237.921875 7.2 " transform="matrix(1.25,0,0,1.25,0,0.000000000000014211)"/>
<path style="fill:none;stroke-width:1;stroke-linecap:round;stroke-linejoin:round;stroke:rgb(0%,0%,0%);stroke-opacity:1;stroke-miterlimit:4;" d="M 99.328125 126.05625 C 97.44375 120.15 95.671875 114.596875 94.0125 109.4 " transform="matrix(1.25,0,0,1.25,0,0.000000000000014211)"/>
<path style="fill:none;stroke-width:1;stroke-linecap:round;stroke-linejoin:round;stroke:rgb(0%,0%,0%);stroke-opacity:1;stroke-miterlimit:4;" d="M 93.321875 113.81875 L 94.0125 109.4 L 97.134375 112.603125 " transform="matrix(1.25,0,0,1.25,0,0.000000000000014211)"/>
<path style=" stroke:none;fill-rule:nonzero;fill:rgb(0%,0%,0%);fill-opacity:1;" d="M 82.621094 162.453125 L 83.746094 162.453125 L 83.746094 171.949219 L 82.621094 171.949219 Z M 82.621094 162.453125 "/>
<path style=" stroke:none;fill-rule:nonzero;fill:rgb(0%,0%,0%);fill-opacity:1;" d="M 88.742188 165.902344 C 88.140625 165.902344 87.664062 166.136719 87.316406 166.605469 C 86.964844 167.078125 86.789062 167.722656 86.789062 168.539062 C 86.789062 169.355469 86.964844 170 87.3125 170.46875 C 87.660156 170.941406 88.136719 171.175781 88.742188 171.175781 C 89.339844 171.175781 89.816406 170.941406 90.164062 170.46875 C 90.515625 169.996094 90.691406 169.351562 90.691406 168.539062 C 90.691406 167.730469 90.515625 167.085938 90.164062 166.613281 C 89.816406 166.140625 89.339844 165.902344 88.742188 165.902344 Z M 88.742188 164.949219 C 89.71875 164.949219 90.484375 165.269531 91.042969 165.902344 C 91.601562 166.539062 91.882812 167.417969 91.882812 168.539062 C 91.882812 169.65625 91.601562 170.535156 91.042969 171.171875 C 90.484375 171.808594 89.71875 172.128906 88.742188 172.128906 C 87.761719 172.128906 86.992188 171.808594 86.4375 171.171875 C 85.882812 170.535156 85.605469 169.65625 85.605469 168.539062 C 85.605469 167.417969 85.882812 166.539062 86.4375 165.902344 C 86.992188 165.269531 87.761719 164.949219 88.742188 164.949219 Z M 88.742188 164.949219 "/>
<path style=" stroke:none;fill-rule:nonzero;fill:rgb(0%,0%,0%);fill-opacity:1;" d="M 98.660156 165.375 L 98.660156 166.425781 C 98.34375 166.25 98.027344 166.121094 97.707031 166.03125 C 97.386719 165.945312 97.066406 165.902344 96.738281 165.902344 C 96.011719 165.902344 95.445312 166.132812 95.039062 166.59375 C 94.636719 167.054688 94.4375 167.703125 94.4375 168.539062 C 94.4375 169.375 94.636719 170.023438 95.039062 170.484375 C 95.445312 170.945312 96.011719 171.175781 96.738281 171.175781 C 97.066406 171.175781 97.386719 171.132812 97.707031 171.042969 C 98.027344 170.957031 98.34375 170.824219 98.660156 170.648438 L 98.660156 171.6875 C 98.347656 171.835938 98.023438 171.945312 97.6875 172.015625 C 97.351562 172.089844 96.996094 172.128906 96.617188 172.128906 C 95.585938 172.128906 94.769531 171.804688 94.160156 171.15625 C 93.554688 170.511719 93.253906 169.636719 93.253906 168.539062 C 93.253906 167.425781 93.558594 166.546875 94.171875 165.910156 C 94.785156 165.269531 95.625 164.949219 96.691406 164.949219 C 97.035156 164.949219 97.375 164.988281 97.703125 165.058594 C 98.03125 165.128906 98.351562 165.234375 98.660156 165.375 Z M 98.660156 165.375 "/>
<path style=" stroke:none;fill-rule:nonzero;fill:rgb(0%,0%,0%);fill-opacity:1;" d="M 103.722656 168.515625 C 102.8125 168.515625 102.183594 168.617188 101.835938 168.824219 C 101.484375 169.03125 101.308594 169.386719 101.308594 169.886719 C 101.308594 170.285156 101.441406 170.601562 101.703125 170.835938 C 101.96875 171.070312 102.324219 171.1875 102.773438 171.1875 C 103.398438 171.1875 103.898438 170.964844 104.273438 170.523438 C 104.652344 170.082031 104.839844 169.496094 104.839844 168.765625 L 104.839844 168.515625 Z M 105.960938 168.050781 L 105.960938 171.949219 L 104.839844 171.949219 L 104.839844 170.914062 C 104.582031 171.328125 104.261719 171.632812 103.878906 171.832031 C 103.496094 172.03125 103.027344 172.128906 102.476562 172.128906 C 101.777344 172.128906 101.21875 171.933594 100.804688 171.539062 C 100.394531 171.144531 100.1875 170.621094 100.1875 169.960938 C 100.1875 169.191406 100.445312 168.613281 100.957031 168.222656 C 101.472656 167.832031 102.242188 167.636719 103.261719 167.636719 L 104.839844 167.636719 L 104.839844 167.523438 C 104.839844 167.007812 104.667969 166.609375 104.328125 166.324219 C 103.988281 166.042969 103.511719 165.902344 102.898438 165.902344 C 102.507812 165.902344 102.125 165.949219 101.753906 166.042969 C 101.386719 166.136719 101.03125 166.277344 100.6875 166.464844 L 100.6875 165.425781 C 101.097656 165.265625 101.496094 165.148438 101.882812 165.070312 C 102.269531 164.992188 102.648438 164.949219 103.011719 164.949219 C 104.003906 164.949219 104.742188 165.207031 105.230469 165.71875 C 105.71875 166.230469 105.960938 167.007812 105.960938 168.050781 Z M 105.960938 168.050781 "/>
<path style=" stroke:none;fill-rule:nonzero;fill:rgb(0%,0%,0%);fill-opacity:1;" d="M 108.273438 162.453125 L 109.398438 162.453125 L 109.398438 171.949219 L 108.273438 171.949219 Z M 108.273438 162.453125 "/>
<path style=" stroke:none;fill-rule:nonzero;fill:rgb(0%,0%,0%);fill-opacity:1;" d="M 121.042969 166.425781 C 121.324219 165.921875 121.660156 165.550781 122.050781 165.308594 C 122.441406 165.070312 122.902344 164.949219 123.429688 164.949219 C 124.140625 164.949219 124.691406 165.199219 125.078125 165.699219 C 125.464844 166.195312 125.660156 166.90625 125.660156 167.824219 L 125.660156 171.949219 L 124.53125 171.949219 L 124.53125 167.859375 C 124.53125 167.207031 124.414062 166.71875 124.179688 166.402344 C 123.949219 166.085938 123.59375 165.925781 123.121094 165.925781 C 122.539062 165.925781 122.078125 166.121094 121.738281 166.507812 C 121.402344 166.894531 121.234375 167.417969 121.234375 168.085938 L 121.234375 171.949219 L 120.105469 171.949219 L 120.105469 167.859375 C 120.105469 167.203125 119.988281 166.714844 119.757812 166.398438 C 119.523438 166.085938 119.167969 165.925781 118.683594 165.925781 C 118.109375 165.925781 117.652344 166.121094 117.3125 166.507812 C 116.976562 166.898438 116.808594 167.421875 116.808594 168.085938 L 116.808594 171.949219 L 115.679688 171.949219 L 115.679688 165.113281 L 116.808594 165.113281 L 116.808594 166.175781 C 117.0625 165.757812 117.371094 165.449219 117.730469 165.25 C 118.085938 165.050781 118.511719 164.949219 119.003906 164.949219 C 119.5 164.949219 119.925781 165.078125 120.273438 165.328125 C 120.621094 165.582031 120.875 165.945312 121.042969 166.425781 Z M 121.042969 166.425781 "/>
<path style=" stroke:none;fill-rule:nonzero;fill:rgb(0%,0%,0%);fill-opacity:1;" d="M 127.898438 165.113281 L 129.019531 165.113281 L 129.019531 171.949219 L 127.898438 171.949219 Z M 127.898438 162.453125 L 129.019531 162.453125 L 129.019531 163.875 L 127.898438 163.875 Z M 127.898438 162.453125 "/>
<path style=" stroke:none;fill-rule:nonzero;fill:rgb(0%,0%,0%);fill-opacity:1;" d="M 137.054688 167.824219 L 137.054688 171.949219 L 135.929688 171.949219 L 135.929688 167.859375 C 135.929688 167.214844 135.804688 166.730469 135.550781 166.410156 C 135.300781 166.089844 134.921875 165.925781 134.417969 165.925781 C 133.808594 165.925781 133.332031 166.121094 132.980469 166.507812 C 132.632812 166.894531 132.457031 167.417969 132.457031 168.085938 L 132.457031 171.949219 L 131.328125 171.949219 L 131.328125 165.113281 L 132.457031 165.113281 L 132.457031 166.175781 C 132.726562 165.765625 133.042969 165.457031 133.40625 165.253906 C 133.769531 165.050781 134.191406 164.949219 134.667969 164.949219 C 135.453125 164.949219 136.046875 165.195312 136.449219 165.679688 C 136.851562 166.164062 137.054688 166.878906 137.054688 167.824219 Z M 137.054688 167.824219 "/>
<path style=" stroke:none;fill-rule:nonzero;fill:rgb(0%,0%,0%);fill-opacity:1;" d="M 139.292969 165.113281 L 140.414062 165.113281 L 140.414062 171.949219 L 139.292969 171.949219 Z M 139.292969 162.453125 L 140.414062 162.453125 L 140.414062 163.875 L 139.292969 163.875 Z M 139.292969 162.453125 "/>
<path style=" stroke:none;fill-rule:nonzero;fill:rgb(0%,0%,0%);fill-opacity:1;" d="M 148.085938 166.425781 C 148.367188 165.921875 148.703125 165.550781 149.09375 165.308594 C 149.484375 165.070312 149.945312 164.949219 150.472656 164.949219 C 151.1875 164.949219 151.734375 165.199219 152.121094 165.699219 C 152.507812 166.195312 152.703125 166.90625 152.703125 167.824219 L 152.703125 171.949219 L 151.574219 171.949219 L 151.574219 167.859375 C 151.574219 167.207031 151.457031 166.71875 151.222656 166.402344 C 150.992188 166.085938 150.640625 165.925781 150.164062 165.925781 C 149.582031 165.925781 149.121094 166.121094 148.78125 166.507812 C 148.445312 166.894531 148.277344 167.417969 148.277344 168.085938 L 148.277344 171.949219 L 147.148438 171.949219 L 147.148438 167.859375 C 147.148438 167.203125 147.03125 166.714844 146.800781 166.398438 C 146.570312 166.085938 146.210938 165.925781 145.726562 165.925781 C 145.152344 165.925781 144.695312 166.121094 144.355469 166.507812 C 144.019531 166.898438 143.851562 167.421875 143.851562 168.085938 L 143.851562 171.949219 L 142.722656 171.949219 L 142.722656 165.113281 L 143.851562 165.113281 L 143.851562 166.175781 C 144.109375 165.757812 144.414062 165.449219 144.773438 165.25 C 145.132812 165.050781 145.554688 164.949219 146.046875 164.949219 C 146.546875 164.949219 146.96875 165.078125 147.316406 165.328125 C 147.664062 165.582031 147.921875 165.945312 148.085938 166.425781 Z M 148.085938 166.425781 "/>
<path style=" stroke:none;fill-rule:nonzero;fill:rgb(0%,0%,0%);fill-opacity:1;" d="M 154.828125 169.253906 L 154.828125 165.113281 L 155.949219 165.113281 L 155.949219 169.210938 C 155.949219 169.859375 156.074219 170.34375 156.328125 170.667969 C 156.578125 170.992188 156.957031 171.152344 157.464844 171.152344 C 158.070312 171.152344 158.546875 170.957031 158.898438 170.570312 C 159.25 170.183594 159.429688 169.65625 159.429688 168.988281 L 159.429688 165.113281 L 160.550781 165.113281 L 160.550781 171.949219 L 159.429688 171.949219 L 159.429688 170.898438 C 159.15625 171.316406 158.839844 171.625 158.480469 171.824219 C 158.121094 172.027344 157.703125 172.128906 157.226562 172.128906 C 156.441406 172.128906 155.84375 171.882812 155.4375 171.394531 C 155.03125 170.90625 154.828125 170.195312 154.828125 169.253906 Z M 157.652344 164.949219 Z M 157.652344 164.949219 "/>
<path style=" stroke:none;fill-rule:nonzero;fill:rgb(0%,0%,0%);fill-opacity:1;" d="M 168.1875 166.425781 C 168.46875 165.921875 168.804688 165.550781 169.195312 165.308594 C 169.585938 165.070312 170.042969 164.949219 170.574219 164.949219 C 171.285156 164.949219 171.835938 165.199219 172.222656 165.699219 C 172.609375 166.195312 172.800781 166.90625 172.800781 167.824219 L 172.800781 171.949219 L 171.671875 171.949219 L 171.671875 167.859375 C 171.671875 167.207031 171.554688 166.71875 171.324219 166.402344 C 171.089844 166.085938 170.738281 165.925781 170.261719 165.925781 C 169.679688 165.925781 169.21875 166.121094 168.882812 166.507812 C 168.542969 166.894531 168.375 167.417969 168.375 168.085938 L 168.375 171.949219 L 167.246094 171.949219 L 167.246094 167.859375 C 167.246094 167.203125 167.132812 166.714844 166.898438 166.398438 C 166.667969 166.085938 166.308594 165.925781 165.824219 165.925781 C 165.25 165.925781 164.792969 166.121094 164.457031 166.507812 C 164.117188 166.898438 163.949219 167.421875 163.949219 168.085938 L 163.949219 171.949219 L 162.820312 171.949219 L 162.820312 165.113281 L 163.949219 165.113281 L 163.949219 166.175781 C 164.207031 165.757812 164.515625 165.449219 164.871094 165.25 C 165.230469 165.050781 165.65625 164.949219 166.148438 164.949219 C 166.644531 164.949219 167.066406 165.078125 167.414062 165.328125 C 167.761719 165.582031 168.019531 165.945312 168.1875 166.425781 Z M 168.1875 166.425781 "/>
<path style="fill:none;stroke-width:1;stroke-linecap:round;stroke-linejoin:round;stroke:rgb(0%,0%,0%);stroke-opacity:1;stroke-miterlimit:4;" d="M 185.796875 68.9125 C 182.69375 90.44375 179.640625 111.60625 176.640625 132.4 " transform="matrix(1.25,0,0,1.25,0,0.000000000000014211)"/>
<path style="fill:none;stroke-width:1;stroke-linecap:round;stroke-linejoin:round;stroke:rgb(0%,0%,0%);stroke-opacity:1;stroke-miterlimit:4;" d="M 179.190625 128.728125 L 176.640625 132.4 L 175.23125 128.15625 " transform="matrix(1.25,0,0,1.25,0,0.000000000000014211)"/>
<path style=" stroke:none;fill-rule:nonzero;fill:rgb(0%,0%,0%);fill-opacity:1;" d="M 188.808594 75.066406 C 188.808594 74.25 188.640625 73.621094 188.304688 73.175781 C 187.96875 72.726562 187.496094 72.503906 186.890625 72.503906 C 186.289062 72.503906 185.820312 72.726562 185.484375 73.175781 C 185.148438 73.621094 184.980469 74.25 184.980469 75.066406 C 184.980469 75.875 185.148438 76.503906 185.484375 76.953125 C 185.820312 77.398438 186.289062 77.625 186.890625 77.625 C 187.496094 77.625 187.96875 77.398438 188.304688 76.953125 C 188.640625 76.503906 188.808594 75.875 188.808594 75.066406 Z M 189.929688 77.714844 C 189.929688 78.878906 189.671875 79.742188 189.15625 80.3125 C 188.640625 80.878906 187.847656 81.164062 186.78125 81.164062 C 186.386719 81.164062 186.015625 81.132812 185.664062 81.074219 C 185.3125 81.015625 184.972656 80.925781 184.644531 80.804688 L 184.644531 79.710938 C 184.972656 79.890625 185.300781 80.023438 185.621094 80.105469 C 185.941406 80.191406 186.269531 80.234375 186.605469 80.234375 C 187.339844 80.234375 187.890625 80.042969 188.257812 79.660156 C 188.625 79.273438 188.808594 78.695312 188.808594 77.917969 L 188.808594 77.359375 C 188.574219 77.765625 188.277344 78.066406 187.917969 78.265625 C 187.554688 78.464844 187.121094 78.5625 186.617188 78.5625 C 185.777344 78.5625 185.101562 78.246094 184.589844 77.605469 C 184.078125 76.96875 183.820312 76.121094 183.820312 75.066406 C 183.820312 74.007812 184.078125 73.160156 184.589844 72.523438 C 185.101562 71.882812 185.777344 71.5625 186.617188 71.5625 C 187.121094 71.5625 187.554688 71.664062 187.917969 71.863281 C 188.277344 72.0625 188.574219 72.363281 188.808594 72.765625 L 188.808594 71.726562 L 189.929688 71.726562 Z M 189.929688 77.714844 "/>
<path style=" stroke:none;fill-rule:nonzero;fill:rgb(0%,0%,0%);fill-opacity:1;" d="M 192.242188 69.066406 L 193.367188 69.066406 L 193.367188 78.5625 L 192.242188 78.5625 Z M 192.242188 69.066406 "/>
<path style=" stroke:none;fill-rule:nonzero;fill:rgb(0%,0%,0%);fill-opacity:1;" d="M 198.363281 72.515625 C 197.761719 72.515625 197.289062 72.75 196.9375 73.21875 C 196.585938 73.691406 196.410156 74.332031 196.410156 75.152344 C 196.410156 75.96875 196.585938 76.613281 196.933594 77.082031 C 197.28125 77.554688 197.757812 77.789062 198.363281 77.789062 C 198.964844 77.789062 199.4375 77.550781 199.785156 77.082031 C 200.136719 76.609375 200.3125 75.964844 200.3125 75.152344 C 200.3125 74.339844 200.136719 73.699219 199.785156 73.226562 C 199.4375 72.75 198.964844 72.515625 198.363281 72.515625 Z M 198.363281 71.5625 C 199.339844 71.5625 200.109375 71.882812 200.664062 72.515625 C 201.222656 73.152344 201.503906 74.027344 201.503906 75.152344 C 201.503906 76.269531 201.222656 77.148438 200.664062 77.785156 C 200.109375 78.421875 199.339844 78.742188 198.363281 78.742188 C 197.382812 78.742188 196.617188 78.421875 196.058594 77.785156 C 195.503906 77.148438 195.226562 76.269531 195.226562 75.152344 C 195.226562 74.027344 195.503906 73.152344 196.058594 72.515625 C 196.617188 71.882812 197.382812 71.5625 198.363281 71.5625 Z M 198.363281 71.5625 "/>
<path style=" stroke:none;fill-rule:nonzero;fill:rgb(0%,0%,0%);fill-opacity:1;" d="M 208.273438 75.152344 C 208.273438 74.324219 208.101562 73.679688 207.761719 73.207031 C 207.421875 72.738281 206.957031 72.503906 206.363281 72.503906 C 205.765625 72.503906 205.300781 72.738281 204.960938 73.207031 C 204.621094 73.679688 204.449219 74.324219 204.449219 75.152344 C 204.449219 75.976562 204.621094 76.625 204.960938 77.09375 C 205.300781 77.566406 205.765625 77.800781 206.363281 77.800781 C 206.957031 77.800781 207.421875 77.566406 207.761719 77.09375 C 208.101562 76.625 208.273438 75.976562 208.273438 75.152344 Z M 204.449219 72.765625 C 204.6875 72.359375 204.984375 72.058594 205.34375 71.859375 C 205.707031 71.664062 206.136719 71.5625 206.636719 71.5625 C 207.464844 71.5625 208.140625 71.894531 208.660156 72.550781 C 209.179688 73.210938 209.4375 74.078125 209.4375 75.152344 C 209.4375 76.226562 209.179688 77.09375 208.660156 77.753906 C 208.140625 78.410156 207.464844 78.742188 206.636719 78.742188 C 206.136719 78.742188 205.707031 78.640625 205.34375 78.445312 C 204.984375 78.246094 204.6875 77.945312 204.449219 77.539062 L 204.449219 78.5625 L 203.320312 78.5625 L 203.320312 69.066406 L 204.449219 69.066406 Z M 204.449219 72.765625 "/>
<path style=" stroke:none;fill-rule:nonzero;fill:rgb(0%,0%,0%);fill-opacity:1;" d="M 214.40625 75.128906 C 213.5 75.128906 212.871094 75.230469 212.519531 75.4375 C 212.167969 75.644531 211.996094 76 211.996094 76.5 C 211.996094 76.898438 212.125 77.214844 212.390625 77.449219 C 212.652344 77.683594 213.007812 77.800781 213.460938 77.800781 C 214.082031 77.800781 214.582031 77.578125 214.960938 77.136719 C 215.335938 76.695312 215.523438 76.109375 215.523438 75.378906 L 215.523438 75.128906 Z M 216.648438 74.664062 L 216.648438 78.5625 L 215.523438 78.5625 L 215.523438 77.527344 C 215.265625 77.941406 214.949219 78.246094 214.566406 78.445312 C 214.183594 78.640625 213.714844 78.742188 213.160156 78.742188 C 212.460938 78.742188 211.90625 78.542969 211.492188 78.152344 C 211.078125 77.757812 210.871094 77.230469 210.871094 76.574219 C 210.871094 75.804688 211.128906 75.226562 211.644531 74.835938 C 212.160156 74.445312 212.925781 74.25 213.949219 74.25 L 215.523438 74.25 L 215.523438 74.136719 C 215.523438 73.621094 215.355469 73.222656 215.015625 72.9375 C 214.675781 72.65625 214.195312 72.515625 213.582031 72.515625 C 213.191406 72.515625 212.8125 72.5625 212.441406 72.65625 C 212.070312 72.75 211.714844 72.890625 211.375 73.078125 L 211.375 72.039062 C 211.785156 71.878906 212.183594 71.761719 212.570312 71.683594 C 212.957031 71.601562 213.332031 71.5625 213.699219 71.5625 C 214.6875 71.5625 215.425781 71.820312 215.914062 72.332031 C 216.402344 72.84375 216.648438 73.621094 216.648438 74.664062 Z M 216.648438 74.664062 "/>
<path style=" stroke:none;fill-rule:nonzero;fill:rgb(0%,0%,0%);fill-opacity:1;" d="M 218.957031 69.066406 L 220.082031 69.066406 L 220.082031 78.5625 L 218.957031 78.5625 Z M 218.957031 69.066406 "/>
<path style=" stroke:none;fill-rule:nonzero;fill:rgb(0%,0%,0%);fill-opacity:1;" d="M 231.726562 73.039062 C 232.007812 72.535156 232.34375 72.164062 232.734375 71.921875 C 233.125 71.683594 233.585938 71.5625 234.113281 71.5625 C 234.828125 71.5625 235.375 71.8125 235.761719 72.3125 C 236.148438 72.808594 236.34375 73.515625 236.34375 74.4375 L 236.34375 78.5625 L 235.214844 78.5625 L 235.214844 74.472656 C 235.214844 73.820312 235.097656 73.332031 234.863281 73.015625 C 234.632812 72.699219 234.277344 72.539062 233.804688 72.539062 C 233.222656 72.539062 232.761719 72.734375 232.421875 73.121094 C 232.085938 73.503906 231.917969 74.03125 231.917969 74.699219 L 231.917969 78.5625 L 230.789062 78.5625 L 230.789062 74.472656 C 230.789062 73.816406 230.671875 73.328125 230.441406 73.011719 C 230.207031 72.699219 229.851562 72.539062 229.367188 72.539062 C 228.792969 72.539062 228.335938 72.734375 227.996094 73.121094 C 227.660156 73.511719 227.492188 74.035156 227.492188 74.699219 L 227.492188 78.5625 L 226.363281 78.5625 L 226.363281 71.726562 L 227.492188 71.726562 L 227.492188 72.789062 C 227.746094 72.371094 228.054688 72.0625 228.414062 71.863281 C 228.769531 71.664062 229.195312 71.5625 229.6875 71.5625 C 230.1875 71.5625 230.609375 71.691406 230.957031 71.941406 C 231.304688 72.195312 231.5625 72.558594 231.726562 73.039062 Z M 231.726562 73.039062 "/>
<path style=" stroke:none;fill-rule:nonzero;fill:rgb(0%,0%,0%);fill-opacity:1;" d="M 238.582031 71.726562 L 239.703125 71.726562 L 239.703125 78.5625 L 238.582031 78.5625 Z M 238.582031 69.066406 L 239.703125 69.066406 L 239.703125 70.488281 L 238.582031 70.488281 Z M 238.582031 69.066406 "/>
<path style=" stroke:none;fill-rule:nonzero;fill:rgb(0%,0%,0%);fill-opacity:1;" d="M 247.738281 74.4375 L 247.738281 78.5625 L 246.613281 78.5625 L 246.613281 74.472656 C 246.613281 73.828125 246.488281 73.34375 246.234375 73.023438 C 245.984375 72.699219 245.605469 72.539062 245.101562 72.539062 C 244.496094 72.539062 244.015625 72.734375 243.664062 73.121094 C 243.316406 73.503906 243.140625 74.03125 243.140625 74.699219 L 243.140625 78.5625 L 242.011719 78.5625 L 242.011719 71.726562 L 243.140625 71.726562 L 243.140625 72.789062 C 243.410156 72.378906 243.726562 72.070312 244.089844 71.867188 C 244.453125 71.664062 244.875 71.5625 245.351562 71.5625 C 246.136719 71.5625 246.730469 71.804688 247.132812 72.292969 C 247.535156 72.777344 247.738281 73.492188 247.738281 74.4375 Z M 247.738281 74.4375 "/>
<path style=" stroke:none;fill-rule:nonzero;fill:rgb(0%,0%,0%);fill-opacity:1;" d="M 249.976562 71.726562 L 251.101562 71.726562 L 251.101562 78.5625 L 249.976562 78.5625 Z M 249.976562 69.066406 L 251.101562 69.066406 L 251.101562 70.488281 L 249.976562 70.488281 Z M 249.976562 69.066406 "/>
<path style=" stroke:none;fill-rule:nonzero;fill:rgb(0%,0%,0%);fill-opacity:1;" d="M 258.773438 73.039062 C 259.054688 72.535156 259.390625 72.164062 259.78125 71.921875 C 260.171875 71.683594 260.628906 71.5625 261.160156 71.5625 C 261.871094 71.5625 262.421875 71.8125 262.808594 72.3125 C 263.195312 72.808594 263.386719 73.515625 263.386719 74.4375 L 263.386719 78.5625 L 262.257812 78.5625 L 262.257812 74.472656 C 262.257812 73.820312 262.140625 73.332031 261.910156 73.015625 C 261.675781 72.699219 261.324219 72.539062 260.847656 72.539062 C 260.265625 72.539062 259.804688 72.734375 259.46875 73.121094 C 259.128906 73.503906 258.960938 74.03125 258.960938 74.699219 L 258.960938 78.5625 L 257.832031 78.5625 L 257.832031 74.472656 C 257.832031 73.816406 257.714844 73.328125 257.484375 73.011719 C 257.253906 72.699219 256.894531 72.539062 256.410156 72.539062 C 255.835938 72.539062 255.378906 72.734375 255.042969 73.121094 C 254.703125 73.511719 254.535156 74.035156 254.535156 74.699219 L 254.535156 78.5625 L 253.40625 78.5625 L 253.40625 71.726562 L 254.535156 71.726562 L 254.535156 72.789062 C 254.792969 72.371094 255.097656 72.0625 255.457031 71.863281 C 255.816406 71.664062 256.242188 71.5625 256.734375 71.5625 C 257.230469 71.5625 257.652344 71.691406 258 71.941406 C 258.347656 72.195312 258.605469 72.558594 258.773438 73.039062 Z M 258.773438 73.039062 "/>
<path style=" stroke:none;fill-rule:nonzero;fill:rgb(0%,0%,0%);fill-opacity:1;" d="M 265.511719 75.867188 L 265.511719 71.726562 L 266.632812 71.726562 L 266.632812 75.824219 C 266.632812 76.46875 266.761719 76.957031 267.011719 77.28125 C 267.265625 77.601562 267.644531 77.765625 268.148438 77.765625 C 268.753906 77.765625 269.230469 77.570312 269.582031 77.183594 C 269.9375 76.796875 270.113281 76.269531 270.113281 75.601562 L 270.113281 71.726562 L 271.234375 71.726562 L 271.234375 78.5625 L 270.113281 78.5625 L 270.113281 77.511719 C 269.839844 77.929688 269.523438 78.238281 269.164062 78.4375 C 268.804688 78.640625 268.386719 78.742188 267.910156 78.742188 C 267.125 78.742188 266.527344 78.496094 266.121094 78.007812 C 265.714844 77.519531 265.511719 76.804688 265.511719 75.867188 Z M 268.335938 71.5625 Z M 268.335938 71.5625 "/>
<path style=" stroke:none;fill-rule:nonzero;fill:rgb(0%,0%,0%);fill-opacity:1;" d="M 278.871094 73.039062 C 279.152344 72.535156 279.488281 72.164062 279.878906 71.921875 C 280.269531 71.683594 280.730469 71.5625 281.257812 71.5625 C 281.96875 71.5625 282.519531 71.8125 282.90625 72.3125 C 283.292969 72.808594 283.484375 73.515625 283.484375 74.4375 L 283.484375 78.5625 L 282.355469 78.5625 L 282.355469 74.472656 C 282.355469 73.820312 282.242188 73.332031 282.007812 73.015625 C 281.777344 72.699219 281.421875 72.539062 280.945312 72.539062 C 280.363281 72.539062 279.90625 72.734375 279.566406 73.121094 C 279.230469 73.503906 279.058594 74.03125 279.058594 74.699219 L 279.058594 78.5625 L 277.929688 78.5625 L 277.929688 74.472656 C 277.929688 73.816406 277.816406 73.328125 277.582031 73.011719 C 277.351562 72.699219 276.992188 72.539062 276.507812 72.539062 C 275.933594 72.539062 275.480469 72.734375 275.140625 73.121094 C 274.804688 73.511719 274.632812 74.035156 274.632812 74.699219 L 274.632812 78.5625 L 273.503906 78.5625 L 273.503906 71.726562 L 274.632812 71.726562 L 274.632812 72.789062 C 274.890625 72.371094 275.199219 72.0625 275.554688 71.863281 C 275.914062 71.664062 276.339844 71.5625 276.832031 71.5625 C 277.328125 71.5625 277.75 71.691406 278.097656 71.941406 C 278.445312 72.195312 278.703125 72.558594 278.871094 73.039062 Z M 278.871094 73.039062 "/>
</g>
</svg>
